<?xml version="1.0" standalone="no"?>
<!DOCTYPE svg PUBLIC "-//W3C//DTD SVG 20010904//EN"
 "http://www.w3.org/TR/2001/REC-SVG-20010904/DTD/svg10.dtd">
<svg version="1.0" xmlns="http://www.w3.org/2000/svg"
 width="540.000000pt" height="540.000000pt" viewBox="0 0 540.000000 540.000000"
 preserveAspectRatio="xMidYMid meet">
<metadata>
Created by potrace 1.14, written by Peter Selinger 2001-2017
</metadata>
<g transform="translate(0.000000,540.000000) scale(0.100000,-0.100000)"
fill="#000000" stroke="none">
<path d="M2394 5375 c-229 -27 -439 -78 -660 -161 -563 -211 -1060 -632 -1371
-1165 -66 -112 -160 -310 -195 -408 -28 -81 -79 -242 -84 -269 -2 -12 -13 -59
-24 -105 -10 -45 -21 -99 -24 -119 -3 -21 -8 -53 -11 -70 -17 -107 -22 -229
-19 -428 2 -124 6 -238 8 -255 25 -174 30 -201 61 -330 113 -477 355 -912 705
-1265 41 -41 104 -102 140 -134 100 -90 327 -256 349 -256 6 0 11 -4 11 -10 0
-5 6 -10 14 -10 7 0 24 -8 37 -19 69 -53 349 -181 514 -234 113 -36 243 -71
305 -82 19 -3 53 -10 75 -15 22 -4 67 -11 100 -15 32 -4 68 -9 80 -12 11 -3
124 -7 250 -8 210 -3 337 5 484 30 20 4 50 9 66 11 17 3 57 12 90 21 33 8 69
17 81 19 58 11 302 93 379 129 17 7 57 26 90 41 261 118 533 311 760 539 136
137 142 144 245 280 183 242 329 527 421 820 34 110 70 257 64 264 -4 3 -1040
5 -1106 2 -10 -1 -23 -20 -34 -48 -35 -96 -168 -337 -205 -373 -3 -3 -31 -37
-63 -77 -144 -178 -343 -332 -562 -434 -112 -51 -119 -54 -180 -73 -196 -59
-315 -76 -525 -72 -117 3 -194 10 -265 24 -622 129 -1107 588 -1266 1200 -37
145 -44 210 -44 412 1 172 10 242 51 393 138 499 498 897 989 1092 183 73 341
100 575 100 171 0 231 -6 353 -35 499 -116 928 -478 1128 -950 17 -41 35 -77
39 -80 16 -10 1115 -4 1113 5 0 6 -3 24 -6 40 -42 257 -226 681 -411 945 -128
183 -382 455 -521 560 -33 25 -66 51 -74 58 -32 31 -275 184 -372 235 -263
139 -621 253 -884 283 -33 3 -69 8 -80 11 -49 12 -487 10 -591 -2z"/>
</g>
</svg>
